<svg width="24" height="24" viewBox="0 0 24 24" fill="none" xmlns="http://www.w3.org/2000/svg">
<path fill-rule="evenodd" clip-rule="evenodd" d="M5.36316 5.75873C5.25487 5.75061 5.10967 5.75012 4.86126 5.75012H4C3.58579 5.75012 3.25 5.41434 3.25 5.00012C3.25 4.58591 3.58579 4.25012 4 4.25012H4.86126C4.86901 4.25012 4.87674 4.25012 4.88446 4.25012C5.10175 4.25011 5.3041 4.25009 5.47534 4.26293C5.66208 4.27694 5.86436 4.30889 6.07018 4.40006C6.36862 4.53225 6.62414 4.74527 6.80788 5.01505C6.93459 5.20111 7.00242 5.39434 7.0498 5.57551C7.09324 5.74164 7.12964 5.94068 7.16872 6.15442L7.26894 6.7023L16.8991 6.97331C17.0637 6.9779 17.1906 6.98145 17.3047 6.99417C18.6111 7.1398 19.6317 8.1896 19.7406 9.49958C19.7501 9.614 19.75 9.74095 19.75 9.90556V9.96489C19.75 10.1205 19.7501 10.2408 19.7413 10.3505C19.6416 11.6026 18.7062 12.628 17.4685 12.842C17.3601 12.8608 17.2403 12.8718 17.0853 12.886L10.6129 13.4815C10.123 13.5266 9.71249 13.5643 9.37267 13.5689C9.01699 13.5736 8.67967 13.5442 8.34671 13.4216C7.83314 13.2326 7.38766 12.8946 7.06727 12.4509C6.85956 12.1632 6.74038 11.8463 6.64917 11.5025C6.56202 11.174 6.48785 10.7685 6.39934 10.2846L5.69738 6.44717C5.65268 6.20281 5.62607 6.06007 5.5986 5.95501C5.58179 5.89074 5.57039 5.86465 5.56698 5.85779C5.54119 5.82055 5.50576 5.79101 5.46448 5.77234C5.45713 5.77023 5.4294 5.7637 5.36316 5.75873ZM5.4666 5.77303L5.46448 5.77234L5.4666 5.77303ZM5.56592 5.85584L5.56698 5.85779L5.56592 5.85584ZM7.54486 8.21065L7.86967 9.9863C7.96473 10.506 8.02878 10.8531 8.09902 11.1179C8.16689 11.3737 8.22647 11.494 8.28335 11.5727C8.42898 11.7744 8.63147 11.9281 8.86492 12.014C8.95609 12.0476 9.08798 12.0725 9.35264 12.069C9.62654 12.0654 9.9781 12.0335 10.5041 11.9851L16.9193 11.3949C17.1162 11.3768 17.1713 11.3711 17.213 11.3639C17.7756 11.2667 18.2007 10.8006 18.2461 10.2314C18.2494 10.1893 18.25 10.1339 18.25 9.93618C18.25 9.72669 18.2494 9.66763 18.2457 9.62376C18.1962 9.02831 17.7323 8.55113 17.1385 8.48493C17.0947 8.48006 17.0357 8.47775 16.8263 8.47186L7.54486 8.21065Z" fill="#17181A"/>
<path fill-rule="evenodd" clip-rule="evenodd" d="M9.5 16.7501C9.08579 16.7501 8.75 17.0859 8.75 17.5001C8.75 17.9143 9.08579 18.2501 9.5 18.2501C9.91421 18.2501 10.25 17.9143 10.25 17.5001C10.25 17.0859 9.91421 16.7501 9.5 16.7501ZM7.25 17.5001C7.25 16.2575 8.25736 15.2501 9.5 15.2501C10.7426 15.2501 11.75 16.2575 11.75 17.5001C11.75 18.7428 10.7426 19.7501 9.5 19.7501C8.25736 19.7501 7.25 18.7428 7.25 17.5001Z" fill="#17181A"/>
<path fill-rule="evenodd" clip-rule="evenodd" d="M16.5 16.7501C16.0858 16.7501 15.75 17.0859 15.75 17.5001C15.75 17.9143 16.0858 18.2501 16.5 18.2501C16.9142 18.2501 17.25 17.9143 17.25 17.5001C17.25 17.0859 16.9142 16.7501 16.5 16.7501ZM14.25 17.5001C14.25 16.2575 15.2574 15.2501 16.5 15.2501C17.7426 15.2501 18.75 16.2575 18.75 17.5001C18.75 18.7428 17.7426 19.7501 16.5 19.7501C15.2574 19.7501 14.25 18.7428 14.25 17.5001Z" fill="#17181A"/>
</svg>
