<svg width="16" height="16" viewBox="0 0 16 16" fill="none" xmlns="http://www.w3.org/2000/svg">
<path fill-rule="evenodd" clip-rule="evenodd" d="M7.75 1.5C4.29822 1.5 1.5 4.29822 1.5 7.75C1.5 11.2018 4.29822 14 7.75 14C11.2018 14 14 11.2018 14 7.75C14 4.29822 11.2018 1.5 7.75 1.5ZM0 7.75C0 3.46979 3.46979 0 7.75 0C12.0302 0 15.5 3.46979 15.5 7.75C15.5 12.0302 12.0302 15.5 7.75 15.5C3.46979 15.5 0 12.0302 0 7.75Z" fill="#17181A"/>
<path fill-rule="evenodd" clip-rule="evenodd" d="M0 7.75C0 7.33579 0.335786 7.00002 0.75 7.00002H14.75C15.1642 7.00002 15.5 7.33579 15.5 7.75C15.5 8.16421 15.1642 8.50002 14.75 8.50002H0.75C0.335786 8.50002 0 8.16421 0 7.75Z" fill="#17181A"/>
<path fill-rule="evenodd" clip-rule="evenodd" d="M5.70017 7.75C5.74765 9.86954 6.46979 11.9109 7.75 13.5826C9.0302 11.9109 9.75234 9.86954 9.79982 7.75C9.75234 5.63046 9.0302 3.58911 7.75 1.91745C6.46979 3.58911 5.74765 5.63046 5.70017 7.75ZM7.75 0.75L7.19624 0.244183C5.32273 2.29526 4.25802 4.95704 4.20016 7.73438C4.19994 7.74479 4.19994 7.75521 4.20016 7.76562C4.25802 10.543 5.32273 13.2047 7.19624 15.2558C7.33833 15.4114 7.53931 15.5 7.75 15.5C7.96069 15.5 8.16166 15.4114 8.30376 15.2558C10.1773 13.2047 11.242 10.543 11.2998 7.76562C11.3001 7.75521 11.3001 7.74479 11.2998 7.73438C11.242 4.95704 10.1773 2.29526 8.30376 0.244183L7.75 0.75Z" fill="#17181A"/>
</svg>
