<svg width="17" height="17" viewBox="0 0 17 17" fill="none" xmlns="http://www.w3.org/2000/svg">
<path fill-rule="evenodd" clip-rule="evenodd" d="M6.84375 1.5C3.89248 1.5 1.5 3.89248 1.5 6.84375C1.5 9.79502 3.89248 12.1875 6.84375 12.1875C8.31959 12.1875 9.6545 11.5902 10.6224 10.6224C11.5902 9.6545 12.1875 8.31959 12.1875 6.84375C12.1875 3.89248 9.79502 1.5 6.84375 1.5ZM0 6.84375C0 3.06405 3.06405 0 6.84375 0C10.6234 0 13.6875 3.06405 13.6875 6.84375C13.6875 8.4631 13.1243 9.95197 12.1843 11.1237L16.2803 15.2197C16.5732 15.5126 16.5732 15.9874 16.2803 16.2803C15.9874 16.5732 15.5126 16.5732 15.2197 16.2803L11.1237 12.1843C9.95197 13.1243 8.4631 13.6875 6.84375 13.6875C3.06405 13.6875 0 10.6234 0 6.84375Z" fill="#17181A"/>
</svg>
