<svg width="56" height="26" viewBox="0 0 56 26" fill="none" xmlns="http://www.w3.org/2000/svg">
<rect width="56" height="26" rx="13" fill="#2268B4"/>
<path d="M29.2423 9.67525H28.0763V13H27.2485V9.67525H26.0825V9.00975H29.2423V9.67525ZM30.5678 9.656V10.6817H31.8988V11.306H30.5678V12.3537H32.2783V13H29.7373V9.00975H32.2783V9.656H30.5678ZM35.002 11.4848L34.5703 10.2637C34.5446 10.1996 34.5171 10.1244 34.4878 10.0382C34.4603 9.95208 34.4337 9.85858 34.408 9.75775C34.3824 9.86042 34.3549 9.95575 34.3255 10.0437C34.298 10.1299 34.2715 10.2051 34.2458 10.2692L33.8168 11.4848H35.002ZM36.388 13H35.7473C35.6758 13 35.6171 12.9835 35.5713 12.9505C35.5273 12.9157 35.4943 12.8717 35.4723 12.8185L35.2028 12.0567H33.6133L33.3438 12.8185C33.3255 12.8643 33.2934 12.9065 33.2475 12.945C33.2017 12.9817 33.144 13 33.0743 13H32.428L33.9873 9.00975H34.8315L36.388 13ZM41.1574 9.00975V13H40.4286V10.5497C40.4286 10.4984 40.4295 10.4434 40.4314 10.3847C40.435 10.3261 40.4405 10.2665 40.4479 10.206L39.3066 12.3702C39.2443 12.4894 39.148 12.549 39.0179 12.549H38.9024C38.8382 12.549 38.7814 12.5343 38.7319 12.505C38.6824 12.4738 38.6429 12.4289 38.6136 12.3702L37.4669 10.1977C37.4724 10.2619 37.4769 10.3242 37.4806 10.3847C37.4843 10.4434 37.4861 10.4984 37.4861 10.5497V13H36.7574V9.00975H37.3844C37.4192 9.00975 37.4504 9.01067 37.4779 9.0125C37.5054 9.01433 37.5292 9.01983 37.5494 9.029C37.5714 9.03633 37.5906 9.04917 37.6071 9.0675C37.6254 9.084 37.6429 9.10783 37.6594 9.139L38.7759 11.2675C38.8107 11.3317 38.8428 11.3977 38.8721 11.4655C38.9033 11.5333 38.9326 11.603 38.9601 11.6745C38.9876 11.6012 39.016 11.5297 39.0454 11.46C39.0765 11.3903 39.1095 11.3234 39.1444 11.2592L40.2526 9.139C40.2691 9.10783 40.2865 9.084 40.3049 9.0675C40.3232 9.04917 40.3424 9.03633 40.3626 9.029C40.3846 9.01983 40.4084 9.01433 40.4341 9.0125C40.4616 9.01067 40.4937 9.00975 40.5304 9.00975H41.1574ZM42.4893 9.00975V9.799L42.4233 10.2307C42.4086 10.3187 42.3821 10.3866 42.3436 10.4342C42.3069 10.4819 42.2455 10.5057 42.1593 10.5057C42.0841 10.5057 42.0264 10.4819 41.9861 10.4342C41.9457 10.3866 41.9164 10.3187 41.8981 10.2307L41.8293 9.799V9.00975H42.4893ZM45.3319 9.77425C45.3063 9.81642 45.2797 9.84758 45.2522 9.86775C45.2265 9.88608 45.1926 9.89525 45.1504 9.89525C45.1101 9.89525 45.0661 9.8815 45.0184 9.854C44.9726 9.82467 44.9185 9.7935 44.8562 9.7605C44.7939 9.7275 44.7224 9.69725 44.6417 9.66975C44.561 9.64042 44.4666 9.62575 44.3584 9.62575C44.1678 9.62575 44.0248 9.66883 43.9294 9.755C43.8341 9.83933 43.7864 9.95025 43.7864 10.0877C43.7864 10.1757 43.8121 10.2491 43.8634 10.3077C43.9166 10.3646 43.9854 10.4141 44.0697 10.4562C44.1559 10.4984 44.253 10.536 44.3612 10.569C44.4694 10.602 44.5803 10.6387 44.6939 10.679C44.8076 10.7175 44.9185 10.7633 45.0267 10.8165C45.1349 10.8697 45.2311 10.9366 45.3154 11.0172C45.4016 11.0979 45.4704 11.1969 45.5217 11.3142C45.5749 11.4297 45.6014 11.5709 45.6014 11.7377C45.6014 11.9192 45.5694 12.0897 45.5052 12.2492C45.4429 12.4069 45.3521 12.5453 45.2329 12.6645C45.1138 12.7818 44.9662 12.8744 44.7902 12.9422C44.616 13.0101 44.418 13.044 44.1962 13.044C44.0697 13.044 43.9432 13.0312 43.8167 13.0055C43.692 12.9798 43.571 12.9441 43.4537 12.8982C43.3382 12.8524 43.2291 12.7974 43.1264 12.7332C43.0238 12.6691 42.9339 12.5976 42.8569 12.5187L43.0989 12.1282C43.1191 12.0989 43.1457 12.0751 43.1787 12.0567C43.2117 12.0366 43.2465 12.0265 43.2832 12.0265C43.3327 12.0265 43.3849 12.0448 43.4399 12.0815C43.4949 12.1182 43.5582 12.1585 43.6297 12.2025C43.7012 12.2465 43.7837 12.2868 43.8772 12.3235C43.9725 12.3602 44.0862 12.3785 44.2182 12.3785C44.4107 12.3785 44.5592 12.3345 44.6637 12.2465C44.77 12.1585 44.8232 12.0274 44.8232 11.8532C44.8232 11.7524 44.7966 11.6708 44.7434 11.6085C44.6921 11.5462 44.6243 11.4939 44.5399 11.4517C44.4556 11.4096 44.3594 11.3738 44.2512 11.3445C44.143 11.3133 44.0321 11.2794 43.9184 11.2427C43.8048 11.2061 43.6939 11.1621 43.5857 11.1107C43.4775 11.0594 43.3813 10.9916 43.2969 10.9072C43.2126 10.8229 43.1439 10.7184 43.0907 10.5937C43.0394 10.4691 43.0137 10.3142 43.0137 10.129C43.0137 9.9805 43.043 9.83658 43.1017 9.69725C43.1604 9.55792 43.2465 9.43417 43.3602 9.326C43.4739 9.21783 43.6132 9.13075 43.7782 9.06475C43.945 8.99875 44.1357 8.96575 44.3502 8.96575C44.5904 8.96575 44.8122 9.00333 45.0157 9.0785C45.221 9.15183 45.3943 9.2545 45.5354 9.3865L45.3319 9.77425ZM26.908 15.568V16.37H27.952V16.842H26.908V18H26.304V15.098H28.152V15.568H26.908ZM29.8633 16.898L29.5493 16.01C29.5307 15.9633 29.5107 15.9087 29.4893 15.846C29.4693 15.7833 29.45 15.7153 29.4313 15.642C29.4127 15.7167 29.3927 15.786 29.3713 15.85C29.3513 15.9127 29.332 15.9673 29.3133 16.014L29.0013 16.898H29.8633ZM30.8713 18H30.4053C30.3533 18 30.3107 17.988 30.2773 17.964C30.2453 17.9387 30.2213 17.9067 30.2053 17.868L30.0093 17.314H28.8533L28.6573 17.868C28.644 17.9013 28.6207 17.932 28.5873 17.96C28.554 17.9867 28.512 18 28.4613 18H27.9913L29.1253 15.098H29.7393L30.8713 18ZM33.4456 15.098L32.2776 18H31.7336L30.5656 15.098H31.0496C31.1016 15.098 31.1436 15.1107 31.1756 15.136C31.2089 15.16 31.2336 15.1913 31.2496 15.23L31.8776 16.902C31.9016 16.9647 31.9249 17.0333 31.9476 17.108C31.9716 17.1813 31.9936 17.2587 32.0136 17.34C32.0309 17.2587 32.0496 17.1813 32.0696 17.108C32.0909 17.0333 32.1136 16.9647 32.1376 16.902L32.7616 15.23C32.7749 15.1967 32.7982 15.1667 32.8316 15.14C32.8662 15.112 32.9089 15.098 32.9596 15.098H33.4456ZM36.4166 16.548C36.4166 16.76 36.3806 16.9567 36.3086 17.138C36.2379 17.3193 36.1373 17.476 36.0066 17.608C35.8773 17.74 35.7213 17.844 35.5386 17.92C35.3559 17.9947 35.1533 18.032 34.9306 18.032C34.7079 18.032 34.5053 17.9947 34.3226 17.92C34.1399 17.844 33.9833 17.74 33.8526 17.608C33.7219 17.476 33.6206 17.3193 33.5486 17.138C33.4779 16.9567 33.4426 16.76 33.4426 16.548C33.4426 16.336 33.4779 16.14 33.5486 15.96C33.6206 15.7787 33.7219 15.622 33.8526 15.49C33.9833 15.358 34.1399 15.2547 34.3226 15.18C34.5053 15.104 34.7079 15.066 34.9306 15.066C35.1533 15.066 35.3559 15.104 35.5386 15.18C35.7213 15.2547 35.8773 15.3587 36.0066 15.492C36.1373 15.624 36.2379 15.7807 36.3086 15.962C36.3806 16.142 36.4166 16.3373 36.4166 16.548ZM35.8026 16.548C35.8026 16.396 35.7826 16.26 35.7426 16.14C35.7026 16.0187 35.6446 15.916 35.5686 15.832C35.4939 15.7467 35.4026 15.682 35.2946 15.638C35.1879 15.5927 35.0666 15.57 34.9306 15.57C34.7946 15.57 34.6726 15.5927 34.5646 15.638C34.4566 15.682 34.3646 15.7467 34.2886 15.832C34.2139 15.916 34.1566 16.0187 34.1166 16.14C34.0766 16.26 34.0566 16.396 34.0566 16.548C34.0566 16.7013 34.0766 16.8387 34.1166 16.96C34.1566 17.08 34.2139 17.182 34.2886 17.266C34.3646 17.35 34.4566 17.4147 34.5646 17.46C34.6726 17.504 34.7946 17.526 34.9306 17.526C35.0666 17.526 35.1879 17.504 35.2946 17.46C35.4026 17.4147 35.4939 17.35 35.5686 17.266C35.6446 17.182 35.7026 17.08 35.7426 16.96C35.7826 16.8387 35.8026 16.7013 35.8026 16.548ZM37.7628 16.472C37.8601 16.472 37.9441 16.46 38.0148 16.436C38.0854 16.4107 38.1434 16.3767 38.1888 16.334C38.2341 16.29 38.2674 16.2387 38.2888 16.18C38.3101 16.1213 38.3208 16.0573 38.3208 15.988C38.3208 15.8507 38.2748 15.744 38.1828 15.668C38.0921 15.592 37.9534 15.554 37.7668 15.554H37.4548V16.472H37.7628ZM39.1688 18H38.6268C38.5254 18 38.4521 17.9613 38.4068 17.884L37.8548 16.994C37.8321 16.9593 37.8068 16.934 37.7788 16.918C37.7521 16.902 37.7121 16.894 37.6588 16.894H37.4548V18H36.8548V15.098H37.7668C37.9694 15.098 38.1428 15.1193 38.2868 15.162C38.4308 15.2033 38.5488 15.2613 38.6408 15.336C38.7328 15.4107 38.8001 15.5 38.8428 15.604C38.8854 15.7067 38.9068 15.82 38.9068 15.944C38.9068 16.04 38.8928 16.1313 38.8648 16.218C38.8381 16.3033 38.7988 16.3813 38.7468 16.452C38.6948 16.5227 38.6308 16.5853 38.5548 16.64C38.4788 16.6947 38.3921 16.7387 38.2948 16.772C38.3334 16.7933 38.3694 16.8193 38.4028 16.85C38.4361 16.8793 38.4661 16.9147 38.4928 16.956L39.1688 18ZM40.0564 18H39.4524V15.098H40.0564V18ZM42.7174 15.582H41.8694V18H41.2674V15.582H40.4194V15.098H42.7174V15.582ZM43.6814 15.568V16.314H44.6494V16.768H43.6814V17.53H44.9254V18H43.0774V15.098H44.9254V15.568H43.6814Z" fill="white"/>
<path fill-rule="evenodd" clip-rule="evenodd" d="M18.0111 7.09999V9.89997H21.973C22.176 9.89767 22.377 9.93952 22.5621 10.0226C22.7473 10.1057 22.9122 10.2281 23.0453 10.3812C23.1785 10.5344 23.2768 10.7146 23.3334 10.9095C23.3899 11.1044 23.4035 11.3093 23.373 11.51L22.407 17.8099C22.3564 18.1437 22.1868 18.448 21.9296 18.6667C21.6723 18.8854 21.3447 19.0037 21.007 18.9999H14.1112L14.1112 9.04975L15.9111 5C16.468 5 17.0022 5.22125 17.396 5.61507C17.7898 6.0089 18.0111 6.54304 18.0111 7.09999ZM12.1112 18.9999H11.0111C10.6398 18.9999 10.2837 18.8524 10.0212 18.5899C9.75861 18.3273 9.61111 17.9712 9.61111 17.5999V12.7C9.61111 12.3286 9.75861 11.9726 10.0212 11.71C10.2837 11.4475 10.6398 11.3 11.0111 11.3H12.1112L12.1112 18.9999Z" fill="white"/>
</svg>
