<svg width="56" height="26" viewBox="0 0 56 26" fill="none" xmlns="http://www.w3.org/2000/svg">
<rect width="56" height="26" rx="13" fill="#F3F3F3"/>
<path d="M15.7553 21.2764C14.602 21.2763 13.4753 20.9297 12.5213 20.2815C11.5672 19.6334 10.83 18.7136 10.405 17.6414C9.98001 16.5692 9.88695 15.3941 10.1379 14.2683C10.3888 13.1426 10.9721 12.1182 11.8122 11.328C12.8421 10.3587 15.3716 8.61358 14.9879 4.77637C19.5925 7.84613 21.8949 10.9159 17.2902 15.5206C18.0576 15.5206 19.2088 15.5206 21.1274 13.625C21.3346 14.2182 21.5111 14.8559 21.5111 15.5206C21.5111 17.0471 20.9047 18.5111 19.8253 19.5905C18.7459 20.67 17.2819 21.2764 15.7553 21.2764Z" fill="#FF4545"/>
<path d="M28.0133 12.0225C28.2173 12.0225 28.3844 11.9984 28.5148 11.9502C28.6479 11.8992 28.7542 11.8327 28.8335 11.7505C28.9128 11.6683 28.9681 11.5748 28.9993 11.47C29.0304 11.3623 29.046 11.2518 29.046 11.1385C29.046 11.0138 29.0276 10.9019 28.9908 10.8027C28.9539 10.7036 28.8944 10.62 28.8123 10.552C28.7301 10.4812 28.6224 10.4273 28.4893 10.3905C28.3589 10.3537 28.1974 10.3352 28.0048 10.3352H26.921V12.0225H28.0133ZM26.921 7.80225V9.46825H27.7583C27.9368 9.46825 28.0954 9.45408 28.2343 9.42575C28.3731 9.39458 28.4893 9.34642 28.5828 9.28125C28.6763 9.21608 28.7471 9.13108 28.7953 9.02625C28.8463 8.91858 28.8718 8.78967 28.8718 8.6395C28.8718 8.4865 28.8505 8.35617 28.808 8.2485C28.7683 8.14083 28.706 8.05442 28.621 7.98925C28.536 7.92408 28.4283 7.87733 28.298 7.849C28.1677 7.81783 28.0133 7.80225 27.8348 7.80225H26.921ZM27.8348 6.83325C28.2484 6.83325 28.6012 6.87292 28.893 6.95225C29.1877 7.02875 29.4271 7.13925 29.6113 7.28375C29.7983 7.42542 29.9343 7.59825 30.0193 7.80225C30.1043 8.00625 30.1468 8.23433 30.1468 8.4865C30.1468 8.62817 30.1255 8.76417 30.083 8.8945C30.0433 9.02483 29.9796 9.14808 29.8918 9.26425C29.8068 9.37758 29.6963 9.481 29.5603 9.5745C29.4243 9.668 29.2628 9.74733 29.0758 9.8125C29.4951 9.91167 29.8053 10.0732 30.0065 10.297C30.2077 10.5208 30.3083 10.8112 30.3083 11.1682C30.3083 11.4289 30.2573 11.6712 30.1553 11.895C30.0561 12.1188 29.9102 12.3129 29.7175 12.4772C29.5248 12.6416 29.2868 12.7705 29.0035 12.864C28.723 12.9547 28.4 13 28.0345 13H25.646V6.83325H27.8348ZM32.5657 7.832V9.41725H34.6227V10.382H32.5657V12.0012H35.2092V13H31.2822V6.83325H35.2092V7.832H32.5657ZM39.5036 8.01475C39.4639 8.07992 39.4228 8.12808 39.3803 8.15925C39.3407 8.18758 39.2883 8.20175 39.2231 8.20175C39.1608 8.20175 39.0928 8.1805 39.0191 8.138C38.9483 8.09267 38.8647 8.0445 38.7683 7.9935C38.672 7.9425 38.5615 7.89575 38.4368 7.85325C38.3122 7.80792 38.1663 7.78525 37.9991 7.78525C37.7044 7.78525 37.4834 7.85183 37.3361 7.985C37.1888 8.11533 37.1151 8.28675 37.1151 8.49925C37.1151 8.63525 37.1548 8.74858 37.2341 8.83925C37.3163 8.92708 37.4225 9.00358 37.5528 9.06875C37.686 9.13392 37.8362 9.192 38.0033 9.243C38.1705 9.294 38.3419 9.35067 38.5176 9.413C38.6933 9.4725 38.8647 9.54333 39.0318 9.6255C39.199 9.70767 39.3478 9.81108 39.4781 9.93575C39.6113 10.0604 39.7175 10.2134 39.7968 10.3947C39.879 10.5732 39.9201 10.7914 39.9201 11.0492C39.9201 11.3297 39.8705 11.5932 39.7713 11.8397C39.675 12.0834 39.5348 12.2973 39.3506 12.4815C39.1664 12.6628 38.9383 12.8059 38.6663 12.9107C38.3972 13.0156 38.0912 13.068 37.7483 13.068C37.5528 13.068 37.3573 13.0482 37.1618 13.0085C36.9692 12.9688 36.7822 12.9136 36.6008 12.8427C36.4223 12.7719 36.2538 12.6869 36.0951 12.5877C35.9364 12.4886 35.7976 12.3781 35.6786 12.2562L36.0526 11.6527C36.0838 11.6074 36.1248 11.5706 36.1758 11.5422C36.2268 11.5111 36.2807 11.4955 36.3373 11.4955C36.4138 11.4955 36.4946 11.5238 36.5796 11.5805C36.6646 11.6372 36.7623 11.6995 36.8728 11.7675C36.9833 11.8355 37.1108 11.8978 37.2553 11.9545C37.4027 12.0112 37.5783 12.0395 37.7823 12.0395C38.0798 12.0395 38.3093 11.9715 38.4708 11.8355C38.6352 11.6995 38.7173 11.4969 38.7173 11.2277C38.7173 11.0719 38.6763 10.9458 38.5941 10.8495C38.5148 10.7532 38.4099 10.6724 38.2796 10.6072C38.1493 10.5421 38.0005 10.4868 37.8333 10.4415C37.6662 10.3933 37.4948 10.3409 37.3191 10.2842C37.1434 10.2276 36.972 10.1596 36.8048 10.0802C36.6377 10.0009 36.4889 9.89608 36.3586 9.76575C36.2283 9.63542 36.122 9.47392 36.0398 9.28125C35.9605 9.08858 35.9208 8.84917 35.9208 8.563C35.9208 8.3335 35.9662 8.11108 36.0568 7.89575C36.1475 7.68042 36.2807 7.48917 36.4563 7.322C36.632 7.15483 36.8473 7.02025 37.1023 6.91825C37.3602 6.81625 37.6548 6.76525 37.9863 6.76525C38.3575 6.76525 38.7003 6.82333 39.0148 6.9395C39.3322 7.05283 39.5999 7.2115 39.8181 7.4155L39.5036 8.01475ZM45.2095 7.86175H43.4075V13H42.1282V7.86175H40.3262V6.83325H45.2095V7.86175ZM27.814 16.481C27.786 16.527 27.757 16.561 27.727 16.583C27.699 16.603 27.662 16.613 27.616 16.613C27.572 16.613 27.524 16.598 27.472 16.568C27.422 16.536 27.363 16.502 27.295 16.466C27.227 16.43 27.149 16.397 27.061 16.367C26.973 16.335 26.87 16.319 26.752 16.319C26.544 16.319 26.388 16.366 26.284 16.46C26.18 16.552 26.128 16.673 26.128 16.823C26.128 16.919 26.156 16.999 26.212 17.063C26.27 17.125 26.345 17.179 26.437 17.225C26.531 17.271 26.637 17.312 26.755 17.348C26.873 17.384 26.994 17.424 27.118 17.468C27.242 17.51 27.363 17.56 27.481 17.618C27.599 17.676 27.704 17.749 27.796 17.837C27.89 17.925 27.965 18.033 28.021 18.161C28.079 18.287 28.108 18.441 28.108 18.623C28.108 18.821 28.073 19.007 28.003 19.181C27.935 19.353 27.836 19.504 27.706 19.634C27.576 19.762 27.415 19.863 27.223 19.937C27.033 20.011 26.817 20.048 26.575 20.048C26.437 20.048 26.299 20.034 26.161 20.006C26.025 19.978 25.893 19.939 25.765 19.889C25.639 19.839 25.52 19.779 25.408 19.709C25.296 19.639 25.198 19.561 25.114 19.475L25.378 19.049C25.4 19.017 25.429 18.991 25.465 18.971C25.501 18.949 25.539 18.938 25.579 18.938C25.633 18.938 25.69 18.958 25.75 18.998C25.81 19.038 25.879 19.082 25.957 19.13C26.035 19.178 26.125 19.222 26.227 19.262C26.331 19.302 26.455 19.322 26.599 19.322C26.809 19.322 26.971 19.274 27.085 19.178C27.201 19.082 27.259 18.939 27.259 18.749C27.259 18.639 27.23 18.55 27.172 18.482C27.116 18.414 27.042 18.357 26.95 18.311C26.858 18.265 26.753 18.226 26.635 18.194C26.517 18.16 26.396 18.123 26.272 18.083C26.148 18.043 26.027 17.995 25.909 17.939C25.791 17.883 25.686 17.809 25.594 17.717C25.502 17.625 25.427 17.511 25.369 17.375C25.313 17.239 25.285 17.07 25.285 16.868C25.285 16.706 25.317 16.549 25.381 16.397C25.445 16.245 25.539 16.11 25.663 15.992C25.787 15.874 25.939 15.779 26.119 15.707C26.301 15.635 26.509 15.599 26.743 15.599C27.005 15.599 27.247 15.64 27.469 15.722C27.693 15.802 27.882 15.914 28.036 16.058L27.814 16.481ZM29.6667 16.352V17.471H31.1187V18.152H29.6667V19.295H31.5327V20H28.7607V15.647H31.5327V16.352H29.6667ZM34.789 19.268V20H32.206V15.647H33.106V19.268H34.789ZM37.9238 19.268V20H35.3408V15.647H36.2408V19.268H37.9238ZM39.3815 16.352V17.471H40.8335V18.152H39.3815V19.295H41.2475V20H38.4755V15.647H41.2475V16.352H39.3815ZM43.2828 17.708C43.4288 17.708 43.5548 17.69 43.6608 17.654C43.7668 17.616 43.8538 17.565 43.9218 17.501C43.9898 17.435 44.0398 17.358 44.0718 17.27C44.1038 17.182 44.1198 17.086 44.1198 16.982C44.1198 16.776 44.0508 16.616 43.9128 16.502C43.7768 16.388 43.5688 16.331 43.2888 16.331H42.8208V17.708H43.2828ZM45.3918 20H44.5788C44.4268 20 44.3168 19.942 44.2488 19.826L43.4208 18.491C43.3868 18.439 43.3488 18.401 43.3068 18.377C43.2668 18.353 43.2068 18.341 43.1268 18.341H42.8208V20H41.9208V15.647H43.2888C43.5928 15.647 43.8528 15.679 44.0688 15.743C44.2848 15.805 44.4618 15.892 44.5998 16.004C44.7378 16.116 44.8388 16.25 44.9028 16.406C44.9668 16.56 44.9988 16.73 44.9988 16.916C44.9988 17.06 44.9778 17.197 44.9358 17.327C44.8958 17.455 44.8368 17.572 44.7588 17.678C44.6808 17.784 44.5848 17.878 44.4708 17.96C44.3568 18.042 44.2268 18.108 44.0808 18.158C44.1388 18.19 44.1928 18.229 44.2428 18.275C44.2928 18.319 44.3378 18.372 44.3778 18.434L45.3918 20Z" fill="#FF4545"/>
</svg>
