<svg width="56" height="26" viewBox="0 0 56 26" fill="none" xmlns="http://www.w3.org/2000/svg">
<rect width="56" height="26" rx="13" fill="#99C63C"/>
<path d="M21.9092 9.09247V18H20.9576C20.8144 18 20.6937 17.9775 20.5954 17.9325C20.4972 17.8834 20.401 17.8015 20.3069 17.6869L15.8685 12.0391C15.8808 12.1824 15.889 12.3236 15.893 12.4627C15.9012 12.6019 15.9053 12.7308 15.9053 12.8495V18H14.2785V9.09247H15.2485C15.3262 9.09247 15.3917 9.09656 15.4449 9.10475C15.5022 9.10884 15.5534 9.12317 15.5984 9.14772C15.6434 9.16818 15.6864 9.19683 15.7273 9.23367C15.7682 9.2705 15.8132 9.31961 15.8623 9.381L20.3315 15.0533C20.3151 14.8978 20.3028 14.7484 20.2946 14.6052C20.2864 14.4579 20.2823 14.3187 20.2823 14.1877V9.09247H21.9092ZM25.6286 10.5351V12.8249H28.5998V14.2184H25.6286V16.5574H29.4469V18H23.7746V9.09247H29.4469V10.5351H25.6286ZM42.8079 9.09247L40.0454 18H38.3817L36.5585 12.1742C36.5298 12.0923 36.5012 12.0023 36.4725 11.9041C36.4439 11.8059 36.4173 11.7015 36.3927 11.591C36.3682 11.7015 36.3416 11.8059 36.3129 11.9041C36.2843 12.0023 36.2556 12.0923 36.227 12.1742L34.3853 18H32.7155L29.9592 9.09247H31.5062C31.6658 9.09247 31.7988 9.1293 31.9052 9.20297C32.0157 9.27664 32.0873 9.37486 32.12 9.49764L33.5013 14.5192C33.534 14.6584 33.5668 14.8098 33.5995 14.9735C33.6364 15.1331 33.6711 15.303 33.7039 15.4831C33.7407 15.2989 33.7796 15.127 33.8205 14.9674C33.8614 14.8078 33.9065 14.6584 33.9556 14.5192L35.564 9.49764C35.5967 9.39532 35.6663 9.30324 35.7727 9.22139C35.8832 9.13544 36.0162 9.09247 36.1717 9.09247H36.7119C36.8715 9.09247 37.0005 9.13135 37.0987 9.20911C37.201 9.28278 37.2767 9.37895 37.3258 9.49764L38.9281 14.5192C38.9772 14.6502 39.0222 14.7935 39.0631 14.949C39.1041 15.1004 39.1429 15.2621 39.1798 15.4339C39.2125 15.2621 39.2432 15.1004 39.2719 14.949C39.3046 14.7935 39.3373 14.6502 39.3701 14.5192L40.7513 9.49764C40.78 9.39123 40.8496 9.2971 40.9601 9.21525C41.0705 9.1334 41.2036 9.09247 41.3591 9.09247H42.8079Z" fill="white"/>
</svg>
