<svg width="15" height="18" viewBox="0 0 15 18" fill="none" xmlns="http://www.w3.org/2000/svg">
<path fill-rule="evenodd" clip-rule="evenodd" d="M7.14383 1.50012C5.87297 1.50012 4.69678 2.68914 4.69678 4.34681C4.69678 6.00448 5.87297 7.19349 7.14383 7.19349C8.4147 7.19349 9.59089 6.00448 9.59089 4.34681C9.59089 2.68914 8.4147 1.50012 7.14383 1.50012ZM3.19678 4.34681C3.19678 2.03169 4.88333 0.00012207 7.14383 0.00012207C9.40434 0.00012207 11.0909 2.03169 11.0909 4.34681C11.0909 6.66193 9.40434 8.69349 7.14383 8.69349C4.88333 8.69349 3.19678 6.66193 3.19678 4.34681Z" fill="#17181A"/>
<path fill-rule="evenodd" clip-rule="evenodd" d="M1.84239 13.5648C1.58263 13.8957 1.5 14.1612 1.5 14.338C1.5 14.8865 1.65046 15.1356 1.80449 15.2759C1.98648 15.4416 2.30375 15.5747 2.84119 15.6419C3.37219 15.7083 4.01542 15.6992 4.76505 15.668C4.94166 15.6606 5.12425 15.652 5.31124 15.6432C5.89559 15.6157 6.52283 15.5862 7.14411 15.5862C7.76539 15.5862 8.39263 15.6157 8.97697 15.6432C9.16396 15.652 9.34656 15.6606 9.52317 15.668C10.2728 15.6992 10.916 15.7083 11.447 15.6419C11.9845 15.5747 12.3017 15.4416 12.4837 15.2759C12.6378 15.1356 12.7882 14.8865 12.7882 14.338C12.7882 14.1612 12.7056 13.8957 12.4458 13.5648C12.1904 13.2394 11.7973 12.8963 11.2775 12.5821C10.2384 11.9541 8.77419 11.4913 7.14411 11.4913C5.51403 11.4913 4.04982 11.9541 3.01074 12.5821C2.49096 12.8963 2.09786 13.2394 1.84239 13.5648ZM2.23484 11.2984C3.50997 10.5277 5.24282 9.99133 7.14411 9.99133C9.0454 9.99133 10.7782 10.5277 12.0534 11.2984C12.6907 11.6836 13.234 12.1397 13.6256 12.6385C14.013 13.1319 14.2882 13.7156 14.2882 14.338C14.2882 15.1882 14.039 15.8883 13.4937 16.3849C12.9764 16.8561 12.2945 17.0477 11.6331 17.1303C10.9652 17.2138 10.2097 17.1979 9.46072 17.1667C9.26698 17.1586 9.07338 17.1495 8.8797 17.1404C8.30351 17.1133 7.72672 17.0862 7.14411 17.0862C6.5615 17.0862 5.98471 17.1133 5.40852 17.1404C5.21484 17.1495 5.02123 17.1586 4.8275 17.1667C4.07851 17.1979 3.32303 17.2138 2.65513 17.1303C1.99367 17.0477 1.31186 16.8561 0.794496 16.3849C0.249173 15.8883 0 15.1882 0 14.338C0 13.7156 0.275213 13.1319 0.662569 12.6385C1.05422 12.1397 1.59752 11.6836 2.23484 11.2984Z" fill="#17181A"/>
</svg>
